<svg width="279" height="48" viewBox="0 0 279 48" fill="none" xmlns="http://www.w3.org/2000/svg">
<path d="M19.5427 47.5038C30.3368 47.5038 39.0854 41.5658 39.0854 31.1744C39.0854 26.7209 37.4568 19.2984 30.9426 13.3604C31.7569 17.8139 26.8712 19.2984 26.8712 19.2984C29.314 11.8759 22.7998 1.48449 13.0285 0C14.1913 5.93797 14.657 11.8759 6.51423 17.8139C2.44284 20.7829 0 25.9163 0 31.1744C0 41.5658 8.74861 47.5038 19.5427 47.5038ZM19.5427 44.5348C14.1457 44.5348 9.77135 41.5658 9.77135 36.3701C9.77135 34.1433 10.5856 30.4321 13.8427 27.4631C13.4356 29.6899 16.2856 31.1744 16.2856 31.1744C15.0642 27.4631 17.9141 21.5251 22.7998 20.7829C22.2168 23.7519 21.9855 26.7209 26.0569 29.6899C28.0926 31.1744 29.314 33.7396 29.314 36.3701C29.314 41.5658 24.9397 44.5348 19.5427 44.5348Z" fill="url(#paint0_linear_584_93)"/>
<path d="M60.2609 39.807H49.5663V15.6564H60.0768C64.6123 15.6564 67.4575 17.9828 67.4575 21.6815C67.4575 24.3259 65.4826 26.5351 62.9219 26.92V27.0539C66.2023 27.3049 68.6123 29.6982 68.6123 32.8949C68.6123 37.1459 65.4157 39.807 60.2609 39.807ZM54.6207 19.4221V25.6982H58.2525C60.9471 25.6982 62.4868 24.51 62.4868 22.4681C62.4868 20.5267 61.1312 19.4221 58.7713 19.4221H54.6207ZM54.6207 36.0413H58.9722C61.8843 36.0413 63.4575 34.8028 63.4575 32.4932C63.4575 30.2338 61.8341 29.0288 58.855 29.0288H54.6207V36.0413ZM71.4753 39.807V15.6564H76.3623V39.807H71.4753ZM86.8739 36.5601C88.9994 36.5601 90.7567 35.171 90.7567 33.2296V31.9242L86.9743 32.1585C85.15 32.2924 84.1124 33.1124 84.1124 34.3844C84.1124 35.7233 85.217 36.5601 86.8739 36.5601ZM85.2672 40.0915C81.853 40.0915 79.2589 37.8823 79.2589 34.6522C79.2589 31.3886 81.7693 29.4974 86.2379 29.2296L90.7567 28.9618V27.7735C90.7567 26.0999 89.5852 25.1292 87.7442 25.1292C85.9199 25.1292 84.7651 26.033 84.5308 27.3551H80.0622C80.2463 23.874 83.2086 21.4807 87.9618 21.4807C92.5642 21.4807 95.5601 23.8572 95.5601 27.4723V39.807H90.8404V37.0622H90.74C89.7358 38.9702 87.5099 40.0915 85.2672 40.0915ZM98.5737 39.807V37.0287L107.511 25.6982V25.5978H98.7076V21.8656H113.185V24.9618L104.783 35.9744V36.058H113.385V39.807H98.5737ZM124.248 25.0957C122.106 25.0957 120.566 26.7192 120.399 28.9618H128.014C127.914 26.6689 126.424 25.0957 124.248 25.0957ZM128.081 34.3175H132.566C132.031 37.8321 128.817 40.1919 124.382 40.1919C118.859 40.1919 115.545 36.6605 115.545 30.92C115.545 25.1961 118.893 21.4807 124.198 21.4807C129.42 21.4807 132.717 25.012 132.717 30.4681V31.9576H120.349V32.2589C120.349 34.8195 121.972 36.5769 124.466 36.5769C126.257 36.5769 127.629 35.6898 128.081 34.3175ZM153.723 39.807H143.029V15.6564H153.539C158.075 15.6564 160.92 17.9828 160.92 21.6815C160.92 24.3259 158.945 26.5351 156.384 26.92V27.0539C159.665 27.3049 162.075 29.6982 162.075 32.8949C162.075 37.1459 158.878 39.807 153.723 39.807ZM148.083 19.4221V25.6982H151.715C154.41 25.6982 155.949 24.51 155.949 22.4681C155.949 20.5267 154.594 19.4221 152.234 19.4221H148.083ZM148.083 36.0413H152.435C155.347 36.0413 156.92 34.8028 156.92 32.4932C156.92 30.2338 155.297 29.0288 152.317 29.0288H148.083V36.0413ZM181.39 21.8656V39.807H176.67V36.5769H176.57C175.683 38.8363 173.908 40.1417 171.197 40.1417C167.314 40.1417 164.737 37.6145 164.737 33.4304V21.8656H169.624V32.4095C169.624 34.8028 170.812 36.0748 172.971 36.0748C175.147 36.0748 176.503 34.5183 176.503 32.1417V21.8656H181.39ZM184.554 27.1376C184.554 23.7233 187.516 21.4807 192.119 21.4807C196.621 21.4807 199.55 23.7568 199.617 27.238H195.115C195.014 25.7987 193.859 24.9116 192.052 24.9116C190.361 24.9116 189.257 25.6815 189.257 26.8363C189.257 27.7233 190.027 28.3258 191.6 28.694L195.031 29.4304C198.629 30.2338 200.085 31.6564 200.085 34.3342C200.085 37.8656 196.838 40.1919 192.102 40.1919C187.315 40.1919 184.37 37.8823 184.102 34.3844H188.872C189.106 35.8907 190.294 36.761 192.236 36.761C194.094 36.761 195.215 36.0246 195.215 34.853C195.215 33.9493 194.612 33.4472 193.006 33.0622L189.692 32.3258C186.294 31.556 184.554 29.7819 184.554 27.1376ZM204.12 17.7317H209.007V21.8656H212.321V25.5476H209.007V34.1334C209.007 35.5057 209.676 36.1585 211.116 36.1585C211.551 36.1585 212.003 36.125 212.304 36.0748V39.6731C211.802 39.7902 210.965 39.8739 209.978 39.8739C205.76 39.8739 204.12 38.4681 204.12 34.9702V25.5476H201.593V21.8656H204.12V17.7317ZM223.066 25.0957C220.924 25.0957 219.384 26.7192 219.217 28.9618H226.832C226.732 26.6689 225.242 25.0957 223.066 25.0957ZM226.899 34.3175H231.384C230.849 37.8321 227.635 40.1919 223.2 40.1919C217.677 40.1919 214.364 36.6605 214.364 30.92C214.364 25.1961 217.711 21.4807 223.016 21.4807C228.238 21.4807 231.535 25.012 231.535 30.4681V31.9576H219.167V32.2589C219.167 34.8195 220.79 36.5769 223.284 36.5769C225.075 36.5769 226.447 35.6898 226.899 34.3175ZM234.348 39.807V21.8656H239.068V25.0957H239.168C239.804 22.8196 241.327 21.5811 243.436 21.5811C244.005 21.5811 244.49 21.6648 244.825 21.7652V26.0664C244.423 25.8991 243.754 25.7819 243.051 25.7819C240.641 25.7819 239.235 27.2547 239.235 29.7819V39.807H234.348Z" fill="white"/>
<path d="M260.743 23.9092L259.45 19.6361H259.358L258.064 23.9092H260.743ZM267.158 19.2574V22.671H268.978C270.14 22.671 270.859 22.1144 270.859 20.9976C270.859 19.8703 270.115 19.2574 269.009 19.2574H267.158Z" fill="white"/>
<path d="M250.12 15.8526C250.12 14.9183 250.491 14.0222 251.152 13.3616C251.812 12.7009 252.708 12.3298 253.643 12.3298H274.779C275.714 12.3298 276.61 12.7009 277.27 13.3616C277.931 14.0222 278.302 14.9183 278.302 15.8526V29.9439C278.302 30.8782 277.931 31.7742 277.27 32.4349C276.61 33.0955 275.714 33.4667 274.779 33.4667H253.643C252.708 33.4667 251.812 33.0955 251.152 32.4349C250.491 31.7742 250.12 30.8782 250.12 29.9439V15.8526ZM257.632 25.4664H261.162L261.99 28.1824H264.211L260.681 17.6158H258.235L254.691 28.1824H256.804L257.632 25.4664ZM265.092 17.614V28.1824H267.158V24.2422H269.032L270.881 28.1824H273.219L271.098 23.9251C272.058 23.5552 273.018 22.509 273.018 20.9607C273.018 18.9403 271.656 17.614 269.31 17.614H265.092Z" fill="white"/>
<defs>
<linearGradient id="paint0_linear_584_93" x1="19.5427" y1="0" x2="19.5427" y2="47.5038" gradientUnits="userSpaceOnUse">
<stop stop-color="#DEB650"/>
<stop offset="1" stop-color="#FE4C00"/>
</linearGradient>
</defs>
</svg>
